<svg width="512" height="512" viewBox="0 0 512 512" fill="none" xmlns="http://www.w3.org/2000/svg">
<circle cx="256" cy="256" r="253" fill="#EF7071" stroke="white" stroke-width="6"/>
<circle cx="132.5" cy="256.5" r="90.5" fill="#94D8FF"/>
<path d="M192 280C192 292.722 181.907 303 169.5 303C157.093 303 147 292.722 147 280C147 267.277 157.093 257 169.5 257C181.907 257 192 267.277 192 280Z" fill="white" stroke="black" stroke-width="2"/>
<circle cx="94" cy="280" r="23" fill="white" stroke="black" stroke-width="2"/>
<circle cx="132" cy="219" r="23" fill="white" stroke="black" stroke-width="2"/>
<circle cx="367.5" cy="256.5" r="90.5" fill="#F4A963"/>
<path d="M428 291C428 303.722 417.907 314 405.5 314C393.093 314 383 303.722 383 291C383 278.277 393.093 268 405.5 268C417.907 268 428 278.277 428 291Z" fill="white" stroke="black" stroke-width="2"/>
<path d="M353 291C353 303.703 342.703 314 330 314C317.297 314 307 303.703 307 291C307 278.297 317.297 268 330 268C342.703 268 353 278.297 353 291Z" fill="white" stroke="black" stroke-width="2"/>
<path d="M428 211C428 223.722 417.907 234 405.5 234C393.093 234 383 223.722 383 211C383 198.277 393.093 188 405.5 188C417.907 188 428 198.277 428 211Z" fill="white" stroke="black" stroke-width="2"/>
<circle cx="333" cy="211" r="23" fill="white" stroke="black" stroke-width="2"/>
<circle cx="368" cy="250" r="23" fill="white" stroke="black" stroke-width="2"/>
</svg>
